<?xml version="1.0" encoding="utf-8"?>
<!-- Generator: Adobe Illustrator 24.1.2, SVG Export Plug-In . SVG Version: 6.00 Build 0)  -->
<svg version="1.1" id="Layer_1" xmlns="http://www.w3.org/2000/svg" xmlns:xlink="http://www.w3.org/1999/xlink" x="0px" y="0px"
	 viewBox="0 0 2279.4 802.7" style="enable-background:new 0 0 2279.4 802.7;" xml:space="preserve">
<style type="text/css">
	.st0{fill-rule:evenodd;clip-rule:evenodd;fill:#CF4033;}
	.st1{fill:none;stroke:#FFFFFF;stroke-width:17.7037;stroke-miterlimit:33.89;}
	.st2{fill-rule:evenodd;clip-rule:evenodd;fill:#2B69AC;}
	.st3{fill-rule:evenodd;clip-rule:evenodd;fill:#FFFFFF;}
</style>
<path class="st0" d="M282.5,469.9c-26.4,9.6-52.2,14.5-78.6,14.5c-53.4,0-101.4-17.5-138.6-50C24,398.3,0,343,0,282.8
	C0,219,19.8,162.4,58.8,116.7c45.6-53.6,112.7-84.3,190.7-84.3c40.8,0,76.8,8.4,109.2,24.7L332.3,201c-29.4-16.9-57-25.9-85.2-25.9
	c-54,0-92.3,38.5-92.3,92c0,45.8,29.4,74,75,74c24,0,54-9,81.6-26.5L282.5,469.9z"/>
<path class="st1" d="M282.5,469.9c-26.4,9.6-52.2,14.4-78.6,14.4c-53.4,0-101.4-17.5-138.6-50C24,398.3,0,343,0,282.8
	C0,219,19.8,162.4,58.8,116.7c45.6-53.6,112.7-84.3,190.7-84.3c40.8,0,76.8,8.4,109.2,24.7L332.3,201c-29.4-16.9-57-25.9-85.2-25.9
	c-54,0-92.3,38.5-92.3,92c0,45.8,29.4,74,75,74c24,0,54-9,81.6-26.5L282.5,469.9z"/>
<path class="st0" d="M749.2,169L692.8,473H558.4l10.8-40.9c-25.2,34.9-54.6,51.7-91.2,51.7c-63.6,0-111.6-53.6-111.6-134.8
	c0-46.3,15.6-92.7,42-128.2c30-40.3,67.8-61.4,110.3-61.4c38.4,0,66,17.5,85.8,53.6L610,169L749.2,169L749.2,169z M509.3,331.5
	c0,22.3,11.4,34.3,31.2,34.3c24.6,0,41.9-19.2,41.9-46.9c0-22.9-13.8-36.1-33.6-36.1C526.1,282.8,509.3,302.7,509.3,331.5
	L509.3,331.5z"/>
<path class="st1" d="M749.2,169L692.8,473H558.4l10.8-40.9c-25.2,34.9-54.6,51.7-91.2,51.7c-63.6,0-111.6-53.6-111.6-134.8
	c0-46.3,15.6-92.7,42-128.2c30-40.3,67.8-61.4,110.3-61.4c38.4,0,66,17.5,85.8,53.6L610,169L749.2,169L749.2,169z M509.3,331.5
	c0,22.3,11.4,34.3,31.2,34.3c24.6,0,41.9-19.2,41.9-46.9c0-22.9-13.8-36.1-33.6-36.1C526.1,282.8,509.3,302.7,509.3,331.5
	L509.3,331.5z"/>
<path class="st0" d="M809.8,169h130.7l-10.2,41.6c20.4-34.3,47.4-51.2,82.8-51.2c9.6,0,21,1.8,34.8,4.8l-22.8,124
	c-19.2-6.6-35.4-10.2-48.6-10.2c-37.2,0-48.6,19.2-55.8,59.6L896.2,473H753.4L809.8,169L809.8,169z"/>
<path class="st1" d="M809.8,169h130.7l-10.2,41.6c20.4-34.3,47.4-51.2,82.8-51.2c9.6,0,21,1.8,34.8,4.8l-22.8,124
	c-19.2-6.6-35.4-10.2-48.6-10.2c-37.2,0-48.6,19.2-55.8,59.6L896.2,473H753.4L809.8,169L809.8,169z"/>
<path class="st0" d="M1124.7,42.7h164.9c126.6,0,189.6,46.3,189.6,139.6c0,98.1-67.8,158.9-192.5,158.9h-61.2l-24,131.8h-155.9
	L1124.7,42.7L1124.7,42.7z M1257.8,228.7c45,0,66.6-13.3,66.6-42.1c0-22.3-18-31.3-57-31.3h-7.2l-13.8,73.4H1257.8L1257.8,228.7z"/>
<path class="st1" d="M1124.7,42.7h164.9c126.6,0,189.6,46.3,189.6,139.6c0,98.1-67.8,158.9-192.5,158.9h-61.2l-24,131.8h-155.9
	L1124.7,42.7L1124.7,42.7z M1257.8,228.7c45,0,66.6-13.3,66.6-42.1c0-22.3-18-31.3-57-31.3h-7.2l-13.8,73.4H1257.8L1257.8,228.7z"/>
<path class="st0" d="M1523,169h130.7l-10.2,41.6c20.4-34.3,47.4-51.2,82.8-51.2c9.6,0,21,1.8,34.8,4.8l-22.8,124
	c-19.2-6.6-35.4-10.2-48.6-10.2c-37.2,0-48.6,19.2-55.8,59.6L1609.3,473h-142.7L1523,169L1523,169z"/>
<path class="st1" d="M1523,169h130.7l-10.2,41.6c20.4-34.3,47.4-51.2,82.8-51.2c9.6,0,21,1.8,34.8,4.8l-22.8,124
	c-19.2-6.6-35.4-10.2-48.6-10.2c-37.2,0-48.6,19.2-55.8,59.6L1609.3,473h-142.7L1523,169L1523,169z"/>
<path class="st0" d="M1812.1,216c36-36.7,82.8-56,134.4-56c93.6,0,154.1,57.2,154.1,145c0,41.5-14.4,80.6-40.8,112.5
	c-34.8,42.1-87,66.8-145.8,66.8c-88.8,0-151.8-59.6-151.8-141.4C1762.3,293,1779.7,249.1,1812.1,216L1812.1,216z M1895.5,330.3
	c0,20.5,12.6,33.7,31.8,33.7c24.6,0,41.4-20.5,41.4-49.3c0-21.1-12-33.7-31.8-33.7C1913.5,281,1895.5,302.7,1895.5,330.3z"/>
<path class="st1" d="M1812.1,216c36-36.7,82.8-56,134.4-56c93.6,0,154.1,57.2,154.1,145c0,41.5-14.4,80.6-40.8,112.5
	c-34.8,42.1-87,66.8-145.8,66.8c-88.8,0-151.8-59.6-151.8-141.4C1762.3,293,1779.7,249.1,1812.1,216L1812.1,216z M1895.5,330.3
	c0,20.5,12.6,33.7,31.8,33.7c24.6,0,41.4-20.5,41.4-49.3c0-21.1-12-33.7-31.8-33.7C1913.5,281,1895.5,302.7,1895.5,330.3z"/>
<path class="st0" d="M130.9,567.4h-28.5v-11.5h69v11.5h-28.5v89.8h-12L130.9,567.4L130.9,567.4z M183.7,550h10.6v53.7
	c5.5-8.2,13.1-12.1,23-12.1c14.7,0,23.7,8.2,23.7,22.5v43.1h-10.7v-37.2c0-12.8-5.5-19-16.8-19c-6.3,0-11.8,2.4-15.4,6.8
	c-3.7,4.5-3.7,9.8-3.7,16.7v32.7h-10.7V550L183.7,550z M268.6,627.1v1c0,13.7,8.7,22.7,20.9,22.7c8.5,0,15.2-4.5,20.5-13.7l8.2,5.5
	c-6.4,11.5-16.2,17.3-29.2,17.3c-19.2,0-32.2-13.9-32.2-34.5c0-20,13.1-33.9,31.5-33.9c18.5,0,30.3,12.6,30.3,33.6v2.1L268.6,627.1
	L268.6,627.1z M287.8,601c-10.3,0-18.1,6.7-19.2,17.4H307C306.3,607.2,299.2,601,287.8,601z M465.1,644.3
	c-10.2,10-23.9,15.6-38.2,15.6c-14.2,0-27.9-5.6-38.1-15.6c-10.3-10-15.8-23.1-15.8-37.5c0-14.5,5.5-27.6,15.8-37.6
	c10.2-9.9,23.9-15.5,38.1-15.4c14.3,0,28.1,5.5,38.2,15.4c10.3,10.1,15.7,23.2,15.7,37.6C480.7,621.2,475.2,634.4,465.1,644.3z
	 M456.1,636.2c7.9-7.8,12.2-18.4,12.1-29.5c0-11.3-4.2-21.8-12.1-29.7c-7.7-7.8-18.2-12.2-29.2-12.2c-11.2,0-21.5,4.3-29.2,12.2
	c-7.8,7.9-12.2,18.6-12.1,29.7c0,11.3,4.2,21.4,12.1,29.5c8.1,8.1,18.1,12.3,29.2,12.3C437.8,648.5,448,644.3,456.1,636.2z
	 M502,602.8h-12.1v-8.9H502v-18.3c0-18.9,3.1-26.9,18.2-26.9c3.2,0,6.4,0.5,9.3,1.4v11.2c-2.6-1.5-5.5-2.2-8.5-2.3
	c-8.1,0-8.3,5.8-8.3,18v16.9h16.8v8.9h-16.8v54.4H502L502,602.8L502,602.8L502,602.8z M542.8,602.8h-12.2v-8.9h12.2v-18.3
	c0-18.9,3.1-26.9,18.2-26.9c3.3,0,6.3,0.5,9.3,1.4v11.2c-2.6-1.5-5.5-2.2-8.5-2.3c-8,0-8.3,5.8-8.3,18v16.9h16.8v8.9h-16.8v54.4
	h-10.7L542.8,602.8L542.8,602.8L542.8,602.8z M586.7,555.5c4.4,0.1,7.9,3.7,7.9,8.1c0,4.3-3.5,7.8-7.8,7.8c0,0-0.1,0-0.1,0
	c-4.3,0.1-7.8-3.4-7.9-7.7c0-0.1,0-0.1,0-0.2C578.8,559,582.4,555.5,586.7,555.5z M581.4,593.9h10.7v63.3h-10.7V593.9z M663.4,654.8
	c-5.8,3.4-13,5.1-21.2,5.1c-19.6,0-32.5-13.7-32.5-33.7c0-20.7,14-34.6,32.9-34.6c6.8,0,13.5,1.5,19.6,4.4v11.6
	c-5.2-3.5-11.3-5.5-17.5-5.5c-13.8,0-23.4,9.4-23.4,24.4c0,12.7,9.5,23,22.6,23c6.8,0,12.9-2.4,19.5-7.3L663.4,654.8L663.4,654.8z
	 M684.2,555.5c4.4,0.1,8,3.7,7.9,8.1c0,4.3-3.5,7.8-7.8,7.8c0,0-0.1,0-0.1,0c-4.3,0-7.8-3.4-7.9-7.7c0-0.1,0-0.1,0-0.2
	C676.3,559,679.9,555.5,684.2,555.5z M678.9,593.9h10.7v63.3h-10.7V593.9z M771.2,657.2h-10.5v-11.5c-5.1,9.2-13.1,14.2-22.9,14.2
	c-18.1,0-30.2-13.4-30.2-34.1c0-21.2,12-34.1,29.6-34.1c10.6,0,18.4,4.8,23.1,14.2v-11.9h10.7L771.2,657.2L771.2,657.2z
	 M739.7,602.4c-13,0-20.6,8.4-20.6,22.8c0,15.3,7.6,24,21,24c12.7,0,20.6-8.4,20.6-22.9C760.8,611.4,751.9,602.4,739.7,602.4
	L739.7,602.4z M793.4,550h10.7v107.2h-10.7V550z M957.2,644.3c-10.2,10-24,15.6-38.3,15.6c-14.2,0-27.9-5.6-38.1-15.6
	c-10.3-10-15.8-23.1-15.8-37.5c0-14.5,5.5-27.6,15.8-37.6c21.3-20.6,55.1-20.6,76.4,0c10.3,10.1,15.6,23.2,15.6,37.6
	C972.9,621.2,967.4,634.4,957.2,644.3z M948.2,636.2c7.9-7.8,12.2-18.4,12.2-29.5c0-11.3-4.3-21.8-12.2-29.7
	c-7.7-7.8-18.2-12.2-29.2-12.2c-11.1,0-21.4,4.3-29.2,12.2c-7.9,7.9-12.2,18.6-12.2,29.7c0,11.3,4.2,21.4,12.2,29.5
	c7.6,7.9,18.2,12.4,29.2,12.3C930,648.5,940.1,644.3,948.2,636.2z M991.4,593.9h10.7v9.8c5.4-8.2,13-12.1,22.9-12.1
	c14.7,0,23.7,8.2,23.7,22.5v43.1H1038v-37.2c0-12.8-5.5-19-16.8-19c-6.3,0-11.9,2.4-15.4,6.8c-3.7,4.5-3.7,9.8-3.7,16.7v32.7h-10.7
	L991.4,593.9L991.4,593.9z M1070.5,550h10.8v107.2h-10.8V550z M1110.1,555.5c4.4,0.1,7.9,3.7,7.9,8.1c0,4.3-3.5,7.8-7.8,7.8
	c0,0-0.1,0-0.1,0c-4.3,0.1-7.9-3.4-7.9-7.7c0-0.1,0-0.1,0-0.2C1102.1,559.1,1105.6,555.5,1110.1,555.5
	C1110,555.5,1110,555.5,1110.1,555.5z M1104.7,593.9h10.8v63.3h-10.8V593.9z M1138.3,593.9h10.7v9.8c5.3-8.2,13-12.1,22.9-12.1
	c14.7,0,23.7,8.2,23.7,22.5v43.1h-10.7v-37.2c0-12.8-5.5-19-16.8-19c-6.4,0-11.8,2.4-15.4,6.8c-3.7,4.5-3.7,9.8-3.7,16.7v32.7h-10.7
	L1138.3,593.9L1138.3,593.9z M1223.3,627.1v1c0,13.7,8.7,22.7,20.9,22.7c8.5,0,15.2-4.5,20.5-13.7l8.2,5.5
	c-6.4,11.5-16.2,17.3-29.2,17.3c-19.2,0-32.2-13.9-32.2-34.5c0-20,13.2-33.9,31.5-33.9c18.5,0,30.3,12.6,30.3,33.6v2.1L1223.3,627.1
	L1223.3,627.1z M1242.5,601c-10.3,0-18.1,6.7-19.2,17.4h38.4C1260.9,607.2,1253.9,601,1242.5,601L1242.5,601z M1344.2,657.2h-12
	V555.9h21.2c10.3,0,18.6,0.3,25.4,5.1c6.3,4.5,10.3,12.9,10.3,22.8c0,9.9-4,18.2-10.3,22.8c-6.8,4.8-15,5.1-25.4,5.1h-9.2V657.2
	L1344.2,657.2z M1350,600.8c17.4,0,26.1-2.3,26.1-16.3c0-14.7-8.6-17.6-26.1-17.6h-5.8v33.8L1350,600.8L1350,600.8z M1453.6,657.2
	h-10.4v-11.5c-5.1,9.2-13.1,14.2-22.9,14.2c-18.1,0-30.2-13.4-30.2-34.1c0-21.2,12-34.1,29.6-34.1c10.6,0,18.4,4.8,23.2,14.2v-11.9
	h10.7L1453.6,657.2L1453.6,657.2L1453.6,657.2z M1422.1,602.4c-13,0-20.6,8.4-20.6,22.8c0,15.3,7.6,24,21,24
	c12.7,0,20.6-8.4,20.6-22.9C1443.1,611.4,1434.3,602.4,1422.1,602.4z M1475.3,593.9h9.6V607c5.7-10.7,11.6-15.3,21.2-15.3
	c2.5,0,4.9,0.4,7.3,1.3l-3.7,9.8c-2.1-0.8-4.4-1.2-6.6-1.3c-11.5,0-17.1,8.2-17.1,24.7v30.9h-10.7V593.9L1475.3,593.9z
	 M1514.8,602.8v-8.9h11.6v-25.5h10.7v25.5h11.9v8.9h-11.9v54.4h-10.7v-54.4H1514.8z M1563.8,640.3c3.5,6.8,8.9,10.1,16.1,10.1
	c7.2,0,11.9-4,11.9-9.5c0-4.8-3.3-7.4-9.9-9.6c-15.5-5.4-24.9-8.1-24.9-20.5c0-11.1,8.9-19.2,22.3-19.2c10.9,0,19.1,4.6,22.4,12.6
	l-8.8,5.4c-2.5-5.8-7.8-9-14.4-9c-6.4,0-10.7,4-10.7,9.5c0,6.7,5.8,7.5,16.2,10.9c12.3,4,18.3,8.5,18.3,18.8c0,11.8-9,20.1-23,20.1
	c-11.7,0-19.9-4.4-24.9-13.3L1563.8,640.3L1563.8,640.3z M1718.1,628.7c0,18.6-12.9,31-32.3,31c-16,0-27.1-8.5-30.9-23.5l10.8-5.4
	c3,12.3,9.9,18.7,20.1,18.7c12.1,0,20.2-7.8,20.2-18.8c0-9.1-5.2-15.7-15.7-20.2l-12.3-5.2c-13.4-5.7-19.9-14.4-19.9-26.7
	c0-14.2,11.6-24.9,28.4-24.9c12.1,0,21.2,5.2,26.1,15.3l-9.9,6.4c-4.4-7.6-9.9-11.6-17.1-11.6c-9,0-15.4,6.1-15.4,14.7
	c0,7.2,4.4,12.3,13.6,16.3l14.4,6.4C1711.4,606.6,1718.1,615.9,1718.1,628.7L1718.1,628.7z M1737.8,601.5c6.5-6.5,14.9-9.9,24.3-9.9
	c9.3,0,17.6,3.6,24.3,10.1c6.5,6.4,10,14.9,10,24.1c0,9.2-3.5,17.5-10,24c-6.6,6.5-15.1,10.2-24.3,10.2c-9.1,0.1-17.9-3.6-24.3-10
	c-6.6-6.7-10-14.9-10-24.1S1731.2,608,1737.8,601.5z M1762.1,649.7c12.6,0,22.7-10.5,22.7-24c0-13.5-10.2-24-22.7-24
	c-12.7,0-22.9,10.5-22.9,24C1739.3,639.2,1749.5,649.7,1762.1,649.7z M1823.1,625c0,16.7,4.1,24.5,18,24.5
	c13.8,0,17.5-7.8,17.7-24.5v-31.2h10.7v37c0,19.1-9.9,29-28.8,29c-18.3,0-28.4-9.6-28.4-28.2v-37.8h10.7L1823.1,625L1823.1,625
	L1823.1,625z M1890.5,593.9h9.6V607c5.7-10.7,11.6-15.3,21.2-15.3c2.5,0,4.9,0.4,7.3,1.3l-3.6,9.8c-2.1-0.8-4.4-1.2-6.7-1.3
	c-11.4,0-17,8.2-17,24.7v30.9h-10.7L1890.5,593.9L1890.5,593.9z M1988.4,654.8c-5.8,3.4-13,5.1-21.2,5.1
	c-19.6,0-32.5-13.7-32.5-33.7c0-20.7,14-34.6,32.9-34.6c7.1,0,13.9,1.6,19.6,4.4v11.6c-5.4-3.5-11.3-5.5-17.5-5.5
	c-13.8,0-23.5,9.4-23.5,24.4c0,12.7,9.5,23,22.6,23c6.8,0,12.9-2.4,19.5-7.3L1988.4,654.8L1988.4,654.8L1988.4,654.8z M2009.7,627.1
	v1c0,13.7,8.7,22.7,20.9,22.7c8.5,0,15.2-4.5,20.5-13.7l8.2,5.5c-6.4,11.5-16.2,17.3-29.2,17.3c-19.2,0-32.2-13.9-32.2-34.5
	c0-20,13.2-33.9,31.5-33.9c18.5,0,30.3,12.6,30.3,33.6v2.1L2009.7,627.1L2009.7,627.1z M2028.8,601c-10.3,0-18.1,6.7-19.2,17.4h38.4
	C2047.3,607.2,2040.3,601,2028.8,601z M573.4,743.1c6.4-6.5,15.2-10,24.3-9.9c9.3,0,17.6,3.5,24.3,10c6.5,6.4,10,14.9,10,24.1
	c0,9.2-3.5,17.5-10,24c-6.4,6.5-15.2,10.1-24.3,10.2c-9.3,0-17.8-3.5-24.3-10c-6.5-6.3-10.1-15-10-24.1
	C563.4,758.1,566.8,749.6,573.4,743.1z M597.7,791.3c12.6,0,22.7-10.5,22.7-24c0-13.4-10.2-23.9-22.7-23.9
	c-12.7,0-22.9,10.5-22.9,23.9C574.8,780.8,585.1,791.3,597.7,791.3z M651.6,744.4h-12.1v-8.9h12.1v-18.3c0-19,3.1-26.9,18.2-26.9
	c3.3,0,6.4,0.4,9.3,1.4v11.2c-2.6-1.5-5.5-2.2-8.5-2.2c-8,0-8.3,5.8-8.3,18v16.9h16.8v8.9h-16.8v54.4h-10.7V744.4L651.6,744.4z
	 M780.6,706.3c-10.6,0-21.3,4.5-28.8,12.3c-7.8,8.1-11.6,18-11.6,29.9c0,9.3,2.2,17.3,6.9,23.9c8.1,11.5,20.3,18,34,18
	c12.7,0,23.9-5.2,33-16v16c-9.9,7.2-21.8,11.1-34,11.1c-10.7,0-21-3.3-29.8-9.4c-14.7-10.2-22.7-25.5-22.7-43.5
	c0-15.7,5.2-28.3,15.8-38.6c10.3-9.9,22.7-14.9,37.6-14.9c12,0,22.7,3.7,33.2,10.9v15.7C804.4,711.1,793.7,706.3,780.6,706.3z
	 M892.2,798.8h-10.4v-11.5c-5.1,9.2-13.1,14.2-22.9,14.2c-18.1,0-30.2-13.5-30.2-34.1c0-21.2,12-34.1,29.6-34.1
	c10.6,0,18.4,4.8,23.1,14.2v-11.9h10.7L892.2,798.8L892.2,798.8L892.2,798.8z M860.7,744c-13,0-20.6,8.4-20.6,22.8
	c0,15.3,7.6,23.9,21,23.9c12.7,0,20.6-8.4,20.6-23C881.8,753,872.9,744,860.7,744z M914,735.5h9.6v13.2
	c5.7-10.8,11.6-15.3,21.2-15.3c2.5,0,4.9,0.4,7.3,1.3l-3.7,9.8c-2.1-0.8-4.4-1.2-6.6-1.3c-11.4,0-17.1,8.2-17.1,24.7v30.9H914V735.5
	z M963.9,691.6h10.7v107.2h-10.7V691.6z M1003.4,697.1c4.4,0.1,7.9,3.7,7.9,8.1c0,4.3-3.5,7.8-7.7,7.8c0,0-0.1,0-0.1,0
	c-4.3,0.1-7.9-3.4-7.9-7.7c0-0.1,0-0.2,0-0.2C995.5,700.7,999,697.1,1003.4,697.1z M998.1,735.5h10.7v63.3h-10.7V735.5z
	 M1034.2,781.9c3.5,6.8,8.9,10.1,16.1,10.1c7.2,0,11.9-4,11.9-9.5c0-4.8-3.2-7.4-9.9-9.6c-15.5-5.4-24.8-8.1-24.8-20.5
	c0-11.1,8.9-19.1,22.3-19.1c10.8,0,19.1,4.5,22.4,12.6l-8.8,5.4c-2.5-5.8-7.7-9-14.4-9c-6.3,0-10.7,4-10.7,9.5
	c0,6.7,5.8,7.5,16.2,10.9c12.3,4,18.4,8.5,18.4,18.9c0,11.7-9.1,20.1-23,20.1c-11.7,0-19.9-4.4-24.8-13.3L1034.2,781.9L1034.2,781.9
	z M1089.7,691.6h10.7v107.2h-10.7V691.6z M1129.6,768.7v1c0,13.7,8.8,22.6,20.9,22.6c8.4,0,15.2-4.5,20.5-13.7l8.2,5.5
	c-6.3,11.5-16.2,17.3-29.2,17.3c-19.2,0-32.2-13.9-32.2-34.5c0-19.9,13.2-33.9,31.5-33.9c18.5,0,30.3,12.6,30.3,33.6v2.1
	L1129.6,768.7L1129.6,768.7z M1148.8,742.6c-10.3,0-18.1,6.7-19.2,17.4h38.4C1167.3,748.8,1160.2,742.6,1148.8,742.6z M1238.6,697.5
	h53.2v11h-41.2v29h41.2v11.2h-41.2v38.8h41.2v11.2h-53.2V697.5L1238.6,697.5z M1300.5,735.5h12.1l18.9,44.2l19.1-44.2h12.1l-31,67.2
	L1300.5,735.5z M1380.7,768.7v1c0,13.7,8.8,22.6,20.9,22.6c8.5,0,15.2-4.5,20.5-13.7l8.2,5.5c-6.3,11.5-16.2,17.3-29.2,17.3
	c-19.2,0-32.2-13.9-32.2-34.5c0-19.9,13.2-33.9,31.5-33.9c18.5,0,30.3,12.6,30.3,33.6v2.1L1380.7,768.7L1380.7,768.7z M1399.9,742.6
	c-10.3,0-18.1,6.7-19.2,17.4h38.4C1418.3,748.8,1411.3,742.6,1399.9,742.6L1399.9,742.6z M1446.9,735.5h10.7v9.8
	c5.3-8.2,13-12,22.9-12c14.6,0,23.7,8.2,23.7,22.5v43.1h-10.8v-37.2c0-12.8-5.5-19-16.8-19c-6.4,0-11.9,2.4-15.4,6.8
	c-3.6,4.5-3.6,9.8-3.6,16.7v32.7h-10.7V735.5L1446.9,735.5z M1515.6,744.4v-8.9h11.6V710h10.7v25.5h11.8v8.9h-11.8v54.4h-10.7v-54.4
	H1515.6z M1564.6,781.9c3.5,6.8,8.9,10.1,16.1,10.1c7.2,0,11.8-4,11.8-9.5c0-4.8-3.2-7.4-9.9-9.6c-15.5-5.4-24.8-8.1-24.8-20.5
	c0-11.1,8.9-19.1,22.3-19.1c10.9,0,19.1,4.5,22.4,12.6l-8.7,5.4c-2.6-5.8-7.8-9-14.4-9c-6.4,0-10.7,4-10.7,9.5
	c0,6.7,5.8,7.5,16.2,10.9c12.3,4,18.3,8.5,18.3,18.9c0,11.7-9,20.1-23,20.1c-11.7,0-19.9-4.4-24.8-13.3L1564.6,781.9L1564.6,781.9z"
	/>
<path class="st2" d="M323.7,437.5c-26.4,9.6-52.2,14.4-78.6,14.4c-53.4,0-101.4-17.4-138.5-49.9c-41.4-36.1-65.4-91.5-65.4-151.6
	C41.2,186.5,61,130,100,84.2C145.5,30.7,212.7,0,290.7,0c40.8,0,76.8,8.4,109.2,24.7l-26.4,143.8c-29.4-16.8-57-25.9-85.2-25.9
	c-54,0-92.4,38.5-92.4,92.1c0,45.7,29.4,74,75,74c24,0,54-9.1,81.6-26.5L323.7,437.5L323.7,437.5z"/>
<path class="st1" d="M323.7,437.5c-26.4,9.6-52.2,14.4-78.6,14.4c-53.4,0-101.4-17.4-138.5-49.9c-41.4-36.1-65.4-91.5-65.4-151.6
	C41.2,186.5,61,130,100,84.2C145.6,30.7,212.7,0,290.7,0c40.8,0,76.8,8.4,109.2,24.7l-26.4,143.8c-29.4-16.8-57-25.9-85.2-25.9
	c-54,0-92.4,38.5-92.4,92.1c0,45.7,29.4,74,75,74c24,0,54-9.1,81.6-26.5L323.7,437.5L323.7,437.5z"/>
<path class="st2" d="M790.4,136.6L734,440.5H599.6l10.8-40.9c-25.2,34.9-54.6,51.8-91.2,51.8c-63.6,0-111.6-53.6-111.6-134.8
	c0-46.3,15.6-92.7,42-128.2C479.6,148,517.4,127,560,127c38.4,0,66,17.5,85.8,53.6l5.4-43.9L790.4,136.6L790.4,136.6L790.4,136.6z
	 M550.4,299.1c0,22.3,11.4,34.3,31.2,34.3c24.6,0,42-19.3,42-47c0-22.9-13.8-36.1-33.6-36.1C567.2,250.3,550.4,270.2,550.4,299.1z"
	/>
<path class="st1" d="M790.4,136.6L734,440.5H599.6l10.8-40.9c-25.2,34.9-54.6,51.8-91.2,51.8c-63.6,0-111.6-53.6-111.6-134.8
	c0-46.3,15.6-92.7,42-128.2C479.6,148,517.4,127,560,127c38.4,0,66,17.5,85.8,53.6l5.4-43.9L790.4,136.6L790.4,136.6z M550.4,299.1
	c0,22.3,11.4,34.3,31.2,34.3c24.6,0,42-19.3,42-47c0-22.9-13.8-36.1-33.6-36.1C567.2,250.3,550.4,270.2,550.4,299.1z"/>
<path class="st2" d="M850.9,136.6h130.8l-10.2,41.5c20.4-34.3,47.4-51.2,82.8-51.2c9.6,0,21,1.8,34.8,4.8l-22.8,124
	c-19.2-6.6-35.4-10.2-48.6-10.2c-37.2,0-48.6,19.3-55.8,59.6l-24.6,135.4H794.6L850.9,136.6z"/>
<path class="st1" d="M850.9,136.6h130.8l-10.2,41.5c20.4-34.3,47.4-51.2,82.8-51.2c9.6,0,21,1.8,34.8,4.8l-22.8,124
	c-19.2-6.6-35.4-10.2-48.6-10.2c-37.2,0-48.6,19.3-55.8,59.6l-24.6,135.4H794.6L850.9,136.6z"/>
<path class="st2" d="M1165.9,10.2h164.9c126.6,0,189.6,46.3,189.6,139.6c0,98.1-67.8,158.9-192.6,158.9h-61.2l-24,131.8h-155.9
	L1165.9,10.2L1165.9,10.2z M1299,196.2c45,0,66.6-13.2,66.6-42.1c0-22.3-18-31.3-57-31.3h-7.2l-13.8,73.4H1299L1299,196.2z"/>
<path class="st1" d="M1165.9,10.2h164.9c126.6,0,189.6,46.3,189.6,139.6c0,98.1-67.8,158.9-192.6,158.9h-61.2l-24,131.8h-155.9
	L1165.9,10.2L1165.9,10.2z M1299,196.2c45,0,66.6-13.2,66.6-42.1c0-22.3-18-31.3-57-31.3h-7.2l-13.8,73.4H1299L1299,196.2z"/>
<path class="st2" d="M1564.2,136.6h130.8l-10.2,41.5c20.4-34.3,47.4-51.2,82.8-51.2c9.6,0,21,1.8,34.8,4.8l-22.8,124
	c-19.2-6.6-35.4-10.2-48.6-10.2c-37.2,0-48.6,19.3-55.8,59.6l-24.6,135.4h-142.7L1564.2,136.6L1564.2,136.6z"/>
<path class="st1" d="M1564.2,136.6h130.8l-10.2,41.5c20.4-34.3,47.4-51.2,82.8-51.2c9.6,0,21,1.8,34.8,4.8l-22.8,124
	c-19.2-6.6-35.4-10.2-48.6-10.2c-37.2,0-48.6,19.3-55.8,59.6l-24.6,135.4h-142.7L1564.2,136.6L1564.2,136.6z"/>
<path class="st2" d="M1853.3,183.5c36-36.7,82.8-56,134.4-56c93.6,0,154.1,57.2,154.1,145.1c0,41.5-14.4,80.6-40.8,112.5
	c-34.8,42.1-87,66.8-145.8,66.8c-88.8,0-151.8-59.6-151.8-141.4C1803.5,260.6,1820.9,216.6,1853.3,183.5L1853.3,183.5z
	 M1936.7,297.9c0,20.5,12.6,33.7,31.8,33.7c24.6,0,41.4-20.5,41.4-49.4c0-21-12-33.7-31.8-33.7
	C1954.6,248.5,1936.7,270.2,1936.7,297.9z"/>
<path class="st1" d="M1853.3,183.5c36-36.7,82.8-56,134.4-56c93.6,0,154.1,57.2,154.1,145.1c0,41.5-14.4,80.6-40.8,112.5
	c-34.8,42.1-87,66.8-145.8,66.8c-88.8,0-151.8-59.6-151.8-141.4C1803.5,260.6,1820.9,216.6,1853.3,183.5L1853.3,183.5z
	 M1936.7,297.9c0,20.5,12.6,33.7,31.8,33.7c24.6,0,41.4-20.5,41.4-49.4c0-21-12-33.7-31.8-33.7
	C1954.6,248.5,1936.7,270.2,1936.7,297.9z"/>
<path class="st2" d="M2279.4,454c0,83.1-67.1,150.4-150,150.4c-82.8,0-150-67.3-150-150.4c0-83.1,67.2-150.4,150-150.4
	C2212.3,303.5,2279.4,370.9,2279.4,454z"/>
<path class="st1" d="M2279.4,454c0,83.1-67.1,150.4-150,150.4c-82.8,0-150-67.3-150-150.4c0-83.1,67.2-150.4,150-150.4
	C2212.3,303.5,2279.4,370.9,2279.4,454z"/>
<path class="st3" d="M2052.2,482.2c-7.1,4.2-9,12.2-4,20.7c4.7,7.9,12.5,10.4,20.2,5.8c4-2.3,6.1-5.5,7.3-10.6l9.5,16.1
	c-2.7,4.8-6.6,8.8-11.3,11.7c-15.5,9.2-33.5,5.3-43.8-12.1c-9.8-16.5-5.2-34.8,10.7-44.2c5-3,9.7-4.6,15.3-4.6l9.2,15.7
	C2060.1,479.6,2056,480,2052.2,482.2L2052.2,482.2z M2122.4,497.1c-16.7,9.9-36.7,4.7-45.8-10.7c-9.2-15.6-4-35.7,12.5-45.5
	c16.6-9.9,36.8-4.9,46,10.7C2144.2,467.1,2138.9,487.3,2122.4,497.1L2122.4,497.1z M2098.2,456.3c-6.8,4.1-8,11.4-3.4,19.2
	c4.6,7.8,11.6,10.1,18.4,6.1c6.8-4,8.1-11.3,3.5-19.1C2112.1,454.7,2105,452.3,2098.2,456.3L2098.2,456.3z M2210.8,402.9
	c-4.9-8.3-8.6-11.1-14.7-7.5c-8.6,5.1-5.1,12.4,1.7,23.9l13.2,22.3l-17.8,10.6l-17-28.7c-4.8-8.1-8.4-11.3-14.6-7.6
	c-8.7,5.2-5.2,12.6,1.6,24l13.2,22.3l-17.9,10.7l-31.1-52.5l18.2-10.8l5.4,9.2c0.1-10.1,3.5-16.7,11.2-21.4c8.5-5.1,15.9-5,22.1,0.2
	c0.3-9.2,4.1-15.8,12-20.5c6.3-3.7,12.3-4.4,18-2.1c5.9,2.5,9.2,7.5,12.8,13.6l19.1,32.2l-18.3,10.9L2210.8,402.9z"/>
</svg>
